<mxfile host="app.diagrams.net" agent="Mozilla/5.0 (Macintosh; Intel Mac OS X 10_15_7) AppleWebKit/605.1.15 (KHTML, like Gecko) Version/18.0.1 Safari/605.1.15" version="24.8.2">
  <diagram name="Page-1" id="CaiUxyqBMfoCklWjdcWj">
    <mxGraphModel dx="1361" dy="1572" grid="1" gridSize="10" guides="1" tooltips="1" connect="1" arrows="1" fold="1" page="1" pageScale="1" pageWidth="850" pageHeight="1100" math="0" shadow="0">
      <root>
        <mxCell id="0" />
        <mxCell id="1" parent="0" />
        <mxCell id="VT23J8wfdMjPRiA1xJDA-1" value="&lt;font style=&quot;font-size: 24px;&quot; face=&quot;Lucida Console&quot;&gt;substrate&lt;/font&gt;" style="rounded=0;whiteSpace=wrap;html=1;strokeWidth=2;fillColor=#dae8fc;strokeColor=#6c8ebf;" vertex="1" parent="1">
          <mxGeometry x="510" y="770" width="290" height="40" as="geometry" />
        </mxCell>
        <mxCell id="VT23J8wfdMjPRiA1xJDA-2" value="&lt;font style=&quot;font-size: 24px;&quot; face=&quot;Lucida Console&quot;&gt;tools&lt;/font&gt;" style="rounded=0;whiteSpace=wrap;html=1;strokeWidth=2;fillColor=#d5e8d4;strokeColor=#82b366;" vertex="1" parent="1">
          <mxGeometry x="510" y="810" width="290" height="40" as="geometry" />
        </mxCell>
        <mxCell id="VT23J8wfdMjPRiA1xJDA-3" value="&lt;font style=&quot;font-size: 24px;&quot; face=&quot;Lucida Console&quot;&gt;fife&lt;/font&gt;" style="rounded=0;whiteSpace=wrap;html=1;strokeWidth=2;fillColor=#fff2cc;strokeColor=#d6b656;" vertex="1" parent="1">
          <mxGeometry x="660" y="730" width="140" height="40" as="geometry" />
        </mxCell>
        <mxCell id="VT23J8wfdMjPRiA1xJDA-4" value="&lt;font style=&quot;font-size: 24px;&quot; face=&quot;Lucida Console&quot;&gt;art&lt;/font&gt;" style="rounded=0;whiteSpace=wrap;html=1;strokeWidth=2;fillColor=#fff2cc;strokeColor=#d6b656;" vertex="1" parent="1">
          <mxGeometry x="510" y="730" width="150" height="40" as="geometry" />
        </mxCell>
        <mxCell id="VT23J8wfdMjPRiA1xJDA-6" value="&lt;font style=&quot;font-size: 24px;&quot; face=&quot;Lucida Console&quot;&gt;nulite&lt;/font&gt;" style="rounded=0;whiteSpace=wrap;html=1;strokeWidth=2;fillColor=#fff2cc;strokeColor=#d6b656;" vertex="1" parent="1">
          <mxGeometry x="510" y="690" width="290" height="40" as="geometry" />
        </mxCell>
        <mxCell id="VT23J8wfdMjPRiA1xJDA-7" value="&lt;font style=&quot;font-size: 24px;&quot; face=&quot;Lucida Console&quot;&gt;larsoft&lt;/font&gt;" style="rounded=0;whiteSpace=wrap;html=1;strokeWidth=2;fillColor=#fff2cc;strokeColor=#d6b656;" vertex="1" parent="1">
          <mxGeometry x="510" y="650" width="290" height="40" as="geometry" />
        </mxCell>
        <mxCell id="VT23J8wfdMjPRiA1xJDA-10" value="&lt;font style=&quot;font-size: 24px;&quot; face=&quot;Lucida Console&quot;&gt;&lt;i&gt;experiment&lt;/i&gt;&lt;/font&gt;" style="rounded=0;whiteSpace=wrap;html=1;strokeWidth=2;fillColor=#f8cecc;strokeColor=#b85450;" vertex="1" parent="1">
          <mxGeometry x="510" y="610" width="290" height="40" as="geometry" />
        </mxCell>
      </root>
    </mxGraphModel>
  </diagram>
</mxfile>
